<svg width="86" height="27" viewBox="0 0 86 27" fill="none" xmlns="http://www.w3.org/2000/svg">
    <path d="M0 2.16956H7.25417L10.9524 12.553L14.7217 2.16956H21.8336V21.5851H16.2863V9.49485L11.5213 21.5851H9.67223L4.97835 9.49485V21.5851H0V2.16956Z" fill="#323232"/>
    <path d="M24.0383 2.16956H30.0124L33.9239 15.8245L37.9777 2.16956H43.1694L36.8398 21.5851H30.5102L24.0383 2.16956Z" fill="#323232"/>
    <path d="M45.3741 2.16956H54.0507C58.6735 2.16956 60.5937 4.23202 60.5937 7.21903V7.36127C60.5937 9.56597 59.4558 10.9884 57.3222 11.5573C59.7402 11.984 61.2338 13.4064 61.2338 16.1089V16.2512C61.2338 19.736 58.9579 21.6563 54.1929 21.6563H45.3741V2.16956ZM52.9128 9.92156C54.6197 9.92156 55.3309 9.35261 55.3309 7.93022V7.78798C55.3309 6.43672 54.6197 5.86776 52.9128 5.86776H50.7792V9.92156H52.9128ZM53.1262 17.8869C54.9041 17.8869 55.6865 17.1046 55.6865 15.6111V15.4689C55.6865 13.9754 54.9041 13.2642 52.9128 13.2642H50.7792V17.8869H53.1262Z" fill="#323232"/>
    <path d="M79.4403 21.5851L73.6796 13.762H64.0074L69.9103 2.16956H79.5825L85.3432 10.0638L79.4403 21.5851Z" fill="#E2001A"/>
</svg>
