<svg width="75" height="27" viewBox="0 0 75 27" fill="none" xmlns="http://www.w3.org/2000/svg">
    <path d="M0 2.05692H6.36418L10.5424 15.806L14.7509 2.05692H20.2794L13.5398 21.6327H6.83045L0 2.05692Z" fill="#323232"/>
    <path d="M22.6107 2.05692H28.5451V17.2857H36.3322V21.6327H22.6107V2.05692Z" fill="#323232"/>
    <path d="M39.1782 2.05692H48.3641C53.2085 2.05692 55.3097 4.14116 55.3097 7.18117V7.29056C55.3097 9.47846 54.0987 10.9294 51.8219 11.5051C54.359 11.9197 55.9455 13.3706 55.9455 16.1112V16.2206C55.9455 19.727 53.5233 21.6731 48.455 21.6731H39.1782V2.05692ZM47.1834 9.83542C49 9.83542 49.7206 9.25967 49.7206 7.83754V7.72814C49.7206 6.38663 48.9697 5.78208 47.1834 5.78208H44.9368V9.81239L47.1834 9.83542ZM47.3892 17.8961C49.2604 17.8961 50.1262 17.0727 50.1262 15.6218V15.5124C50.1262 14.0327 49.2906 13.267 47.2137 13.267H44.9368V17.873L47.3892 17.8961Z" fill="#323232"/>
    <path d="M69.8305 15.1151L65.7674 9.82967H58.9248L63.0909 2.05692H69.9334L73.9966 7.33663L69.8305 15.1151Z" fill="#E3001B"/>
</svg>
